<?xml version="1.0" encoding="utf-8"?>
<!-- Generator: Adobe Illustrator 19.1.0, SVG Export Plug-In . SVG Version: 6.00 Build 0)  -->
<svg version="1.1" id="Layer_1" xmlns="http://www.w3.org/2000/svg" xmlns:xlink="http://www.w3.org/1999/xlink" x="0px" y="0px"
	 width="585.2px" height="228.4px" viewBox="0 0 585.2 228.4" enable-background="new 0 0 585.2 228.4" xml:space="preserve">
<path fill="#FFFFFF" d="M149.2,180.9V76.7c0-14.6,2-20.1,9.3-21.8h0v-0.6h-37.9v0.6c7.3,1.7,9.3,7.2,9.3,21.8v104.2
	c0,14.6-1.9,20.1-9.2,21.8h0v0.6h37.9v-0.6h0C151.3,201,149.2,195.5,149.2,180.9L149.2,180.9z"/>
<path fill="#FFFFFF" d="M496.3,227.7c16.6-1.6,18-11.1,18-37.2l0-183.6c-4.1,0.5-18.4-1.9-28.9,3.8C474.8,16.5,470,28.8,464.9,38
	l-0.6-0.2L473.8,0h102l2.1,8.5l-0.5,0.2l0.5-0.2l7.3,29.3l-0.6,0.2c-3.7-6.7-8.8-18.3-16.4-24.6c-10.8-8.8-27.3-6.1-33.4-6.6
	l0,183.6c0,26.1,1.1,35.2,17.8,37.3v0.6l-56.3,0V227.7"/>
<path fill="#FFFFFF" d="M338.2,126.2v0.6h0c14.9,2.1,16.5,10.2,16.5,31.8v19.8c0,3.6-1.2,18.4-11.5,22.7c-4.1,1.7-6.8,1.8-10.2,1.8
	c-2.5,0-8.4-2.2-11.5-4.8c-5.6-4.5-8.1-10.5-11.4-26.4c-2.1-10.2-3.9-27-3.9-44.8c0-17.8,2.2-35,5.3-44.8
	c5.4-16.9,14.5-25.8,25.7-26c9.5-0.2,25.8,4.2,36.8,29.6l0-0.1l0.6-0.2L366.5,59l-1.4-4.6l-0.6,0.2c0.1,1.4,0,3-1.9,2.9
	c-1.8-0.1-3.8-1.7-4.8-2.4c-5.7-3.7-13-5.7-20.7-5.7c-12.8,0-52.8,4.2-52.8,77.3c0,74.4,37.7,82.7,49,82.7c4.5,0,10.5-1.7,14.9-3.7
	c2.9-1.4,6.7-3.5,15.7-3.4c3,0,6.5,1,10.9,1v-77.1H338.2L338.2,126.2z"/>
<path fill="#FFFFFF" d="M484.2,169c-8.2,19.9-20.3,27.8-47.8,27.8c-6.7,0-7.6,0-7.6,0V131c0,0,7.1,0,10.6,0
	c10.4,0,20.3-2.1,26.1,10.6l0,0l0.6-0.2l-9.4-36.9l-0.6,0.1l0,0c1.9,17.4-6.2,19.1-16.8,19.2c-3.3,0-10.5,0-10.5,0V60.9l13.1,0
	c21.6-0.4,28.7,1.7,37.2,20.6l0,0l0.5-0.2l-8.4-26.9h-69.9V55h0c7.3,1.7,8.1,7.1,8.1,21.6v104.2c0,14.6-0.9,20.2-8.2,21.9v0.6
	l72.7,0l10.9-34.1L484.2,169L484.2,169z"/>
<path fill="#FFFFFF" d="M49.8,7.2c27.6,0,35.5,16.3,35.5,52.4c0,41.1-20,52.4-39.4,52.4c-3,0-7.3,0-7.3,0V7.2H49.8L49.8,7.2z
	 M52.1-0.1H0v0.7c16.3,1.7,18.1,9.8,18.1,37.1v153c0,27.3-1.8,35.4-18,37.2v0.6h56.3v-0.6c-16-1.8-17.7-10-17.7-37.2v-71.5
	c3.5,0,6.5-0.1,9.6-0.1c31.6,0,59-14.8,59-59.5C107.3,16.4,88.8-0.1,52.1-0.1L52.1-0.1z"/>
<path fill="#FFFFFF" d="M207.5,123.8l10.3-36.7l10.4,36.7H207.5L207.5,123.8z M281.9,203.3v-0.6h0c-8.5-2.1-12.8-6.1-16.4-18.9
	L226,38.9l-41.6,143.4c-5,16.7-8.7,20.4-13.5,20.4c0,0.2,0,0.6,0,0.6l24.8,0v-0.6h0c-10.6-2.2-7.4-10.4-3.2-25.4l12.8-46.3H230
	l14,50.5c4.6,13.7-4.6,19.5-11.9,21.2h0v0.6H281.9L281.9,203.3z"/>
<g>
</g>
<g>
</g>
<g>
</g>
<g>
</g>
<g>
</g>
<g>
</g>
</svg>
