<?xml version="1.0" encoding="utf-8"?>
<!-- Generator: Adobe Illustrator 16.2.1, SVG Export Plug-In . SVG Version: 6.00 Build 0)  -->
<!DOCTYPE svg PUBLIC "-//W3C//DTD SVG 1.1//EN" "http://www.w3.org/Graphics/SVG/1.1/DTD/svg11.dtd">
<svg version="1.1" id="Layer_1" xmlns="http://www.w3.org/2000/svg" xmlns:xlink="http://www.w3.org/1999/xlink" x="0px" y="0px"
	 width="78.408px" height="367.752px" viewBox="0 0 78.408 367.752" enable-background="new 0 0 78.408 367.752"
	 xml:space="preserve">
<g>
	<path fill="#73534A" d="M76.56,318.517c0,36.695-17.952,49.235-37.487,49.235c-19.536,0-37.488-12.012-37.488-49.235V62.436h74.844
		v256.081H76.56z"/>
	<g>
		<path fill="#DBDBDA" d="M1.716,62.436V33.792c0-18.48,16.764-33.528,37.488-33.528l0,0c20.724,0,37.487,15.048,37.487,33.528
			v28.644H1.716z"/>
	</g>
</g>
<g>
	<path fill="#B4BDC5" d="M0,299.244V32.736C0,14.652,17.556,0,39.204,0c21.647,0,39.204,14.652,39.204,32.736v265.452L0,299.244z"/>
	<line fill="none" stroke="#AEB5BA" stroke-width="6.1365" stroke-miterlimit="10" x1="0" y1="263.472" x2="78.408" y2="263.472"/>
</g>
</svg>
