<?xml version="1.0" encoding="utf-8"?>
<!-- Generator: Adobe Illustrator 19.1.0, SVG Export Plug-In . SVG Version: 6.00 Build 0)  -->
<svg version="1.1" id="Layer_1" xmlns="http://www.w3.org/2000/svg" xmlns:xlink="http://www.w3.org/1999/xlink" x="0px" y="0px"
	 viewBox="9 43.6 138.9 139" enable-background="new 9 43.6 138.9 139" xml:space="preserve">
<path fill="#FFFFFF" d="M131.5,77.5c-9,0-16.2-7.5-16.2-16.9s7.3-16.9,16.2-17c9,0,16.4,7.5,16.4,16.9
	C147.7,69.9,140.5,77.5,131.5,77.5"/>
<path fill="#FFFFFF" d="M24.8,79C16.1,79,9,71.6,9,62.5C9,53.4,16.1,46,24.8,46s15.8,7.4,15.8,16.5C40.5,71.6,33.6,79,24.8,79"/>
<path fill="#1E1911" d="M77.6,102c-24.2,0-44.5,9-45.3,23.7c-0.9,14.7,4.4,17.6,4.4,17.6l5.1-0.2c0,0-2.4-16.4,6.3-19.3
	c8.7-2.9,29.5-10.2,29.5-18.9V102z"/>
<path fill="#1E1911" d="M77.6,102c24.2,0,44.5,9,45.3,23.7c0.9,14.7-4.6,16.2-4.6,16.2l-4.9,1.4c0,0,2.4-16.4-6.3-19.3
	c-8.7-2.9-29.5-10.2-29.5-18.9L77.6,102L77.6,102z"/>
<path fill="#1E1911" d="M49.3,107.7v29c0,4.8-3.7,8.5-8.5,8.5s-8.5-3.7-8.5-8.5v-10.9"/>
<path fill="#1E1911" d="M63.4,135.3v7.2c0,3.9-3.7,7.8-8.5,7.8s-8.5-3.7-8.5-8.5v-10.9"/>
<path fill="#1E1911" d="M108.9,135.3v7.2c0,3.9-3.7,7.8-8.5,7.8s-8.5-3.7-8.5-8.5v-10.9"/>
<path fill="#1E1911" d="M79.3,138.2v7.2c0,3.9-3.7,7.8-8.5,7.8s-8.5-3.7-8.5-8.5v-10.9"/>
<path fill="#1E1911" d="M94.6,138.2v7.2c0,3.9-3.7,7.8-8.5,7.8s-8.5-3.7-8.5-8.5v-10.9"/>
<polyline fill="none" stroke="#1E1911" stroke-width="9" stroke-linecap="square" stroke-linejoin="round" stroke-miterlimit="10" points="
	42.8,135.3 76.2,140.9 111.6,136.1 "/>
<path fill="#1E1911" d="M106,107.7v29c0,4.8,3.7,8.5,8.5,8.5c4.8,0,8.5-3.7,8.5-8.5v-10.9"/>
</svg>
