<?xml version="1.0" encoding="utf-8"?>
<!-- Generator: Adobe Illustrator 19.1.0, SVG Export Plug-In . SVG Version: 6.00 Build 0)  -->
<svg version="1.1" id="Layer_1" xmlns="http://www.w3.org/2000/svg" xmlns:xlink="http://www.w3.org/1999/xlink" x="0px" y="0px"
	 viewBox="49 -45.3 217.2 211.3" enable-background="new 49 -45.3 217.2 211.3" xml:space="preserve">
<path fill="none" stroke="#1E1911" stroke-width="9" stroke-linecap="round" stroke-miterlimit="10" d="M90.3,69.9
	c0,0-30,15.8-35.2,58.6"/>
<path fill="none" stroke="#1E1911" stroke-width="9" stroke-linecap="round" stroke-miterlimit="10" d="M110.2,67.4
	c0,0-35.4-10.5-60.8,28.1"/>
<path fill="none" stroke="#1E1911" stroke-width="9" stroke-linecap="round" stroke-miterlimit="10" d="M152.9,67.5
	c0,0-8.1-26.9-47.4-44.6"/>
<path fill="none" stroke="#1E1911" stroke-width="9" stroke-linecap="round" stroke-miterlimit="10" d="M217.6,47
	c0,0,30,15.8,35.2,58.6"/>
<path fill="none" stroke="#1E1911" stroke-width="9" stroke-linecap="round" stroke-miterlimit="10" d="M158.6,46.1
	c0,0,23-27.8,65.9-32.2"/>
<path fill="none" stroke="#1E1911" stroke-width="9" stroke-linecap="round" stroke-miterlimit="10" d="M155,44.6
	c0,0,8.1-26.9,47.4-44.6"/>
<rect x="124.1" y="32.1" fill="#1E1911" width="67.4" height="37.1"/>
<path fill="none" stroke="#1E1911" stroke-width="9" stroke-linecap="round" stroke-miterlimit="10" d="M225.3,71
	c0,0,30,15.8,35.2,58.6"/>
<path fill="none" stroke="#1E1911" stroke-width="9" stroke-linecap="round" stroke-miterlimit="10" d="M205.4,68.6
	c0,0,35.4-10.5,60.8,28.1"/>
<path fill="#1E1911" d="M124.1,111.7c0-14.2-11.1-25.8-24.8-25.8s-24.8,11.6-24.8,25.8v25.7l49.6,1.4V111.7z"/>
<path fill="#1E1911" d="M148.9,85.2c0-14.2-11.1-25.8-24.8-25.8S99.3,70.9,99.3,85.2v25.7l49.6,1.4
	C148.9,112.3,148.9,85.2,148.9,85.2z"/>
<path fill="#1E1911" d="M114.4,56.8c0-14.2-14.8,15.4-27.7,15.4c-12.9,0-22.7,28-22.7,42.3v35.2l46.9-8.1L114.4,56.8z"/>
<path fill="#1E1911" d="M191.2,90.1c0-14.2,11.1-25.8,24.8-25.8s24.8,11.5,24.8,25.8v25.7l-49.6,1.4L191.2,90.1L191.2,90.1z"/>
<path fill="#1E1911" d="M166.4,63.5c0-14.2,11.1-25.8,24.8-25.8S216,49.2,216,63.5v25.7l-49.6,1.4V63.5z"/>
<path fill="#1E1911" d="M204.9,113c0-14.2,10.5-25.8,23.4-25.8s23.4,11.5,23.4,25.8v35.2l-46.9-8.1V113H204.9z"/>
<path fill="#FFFFFF" d="M114.4,118.3c-5.2,0-9.4-4.5-9.4-10.1s4.2-10.1,9.4-10.1c5.2,0,9.3,4.5,9.3,10.1
	C123.8,113.8,119.6,118.3,114.4,118.3"/>
<path fill="#FFFFFF" d="M200,118.6c-5.3,0-9.6-4.7-9.6-10.4c0-5.8,4.3-10.4,9.6-10.4s9.6,4.7,9.6,10.4
	C209.7,113.9,205.3,118.6,200,118.6"/>
<path fill="#73534A" d="M206.8,77.6c29.6,15.9,50.4,46.1,53,81.3H58.2c2.7-35.2,23.4-65.5,53-81.3l6-3c12.8-5.8,26.9-9,41.8-9
	s29.1,3.2,41.8,9L206.8,77.6"/>
<path fill="#1E1911" d="M74,113.1v26.7c0,2.8-2.2,5-5,5s-5-2.2-5-5v-8.3C64,131.6,69.5,118.3,74,113.1"/>
<path fill="#1E1911" d="M76.1,108.8v32.1c0,2.8,2.2,5,5,5s5-2.2,5-5V98.7c0,0,0-3.4,2.4-1.7c0,0,7-18.4-10.9,7.8"/>
<path fill="#1E1911" d="M110.8,72.9v50.3c0,2.8-2.2,5-5,5c-2.8,0-5-2.2-5-5V84"/>
<path fill="#1E1911" d="M141.6,49.3l-9.4,36.1c-0.7,2.7-3.4,4.3-6.1,3.6c-2.7-0.7-4.3-3.4-3.6-6.1l9.8-38"/>
<path fill="#1E1911" d="M150.1,36l-3.2,37.2c-0.2,2.8-2.7,4.8-5.4,4.6c-2.8-0.2-4.8-2.7-4.6-5.4l3.4-39.1"/>
<path fill="#1E1911" d="M165.2,36l3.2,37.2c0.2,2.8,2.7,4.8,5.4,4.6c2.8-0.2,4.8-2.7,4.6-5.4L175,33.3"/>
<path fill="#1E1911" d="M184.7,48.6l8.7,33.5c0.7,2.7-0.9,5.4-3.6,6.1c-2.7,0.7-5.4-0.9-6.1-3.6l-8.3-32.4"/>
<path fill="#1E1911" d="M88.5,94.5v45.3c0,2.8,2.2,5,5,5s5-2.2,5-5l0.1-54.9c0,0,0.6-2.6,2.2-1c1.6,1.6,10-5,10-5
	s-11.1-3.6-19.7,9.6C91.2,88.6,88.5,89.8,88.5,94.5"/>
<path fill="#1E1911" d="M242,108.7v26.7c0,2.8,2,4.6,4.7,4.6c2.8,0,5-2.2,5-5v-8.3C251.7,126.7,251.7,113.8,242,108.7"/>
<path fill="#1E1911" d="M229.5,92.5v44.2c0,2.8,2.2,5,5,5s5-2.2,5-5v-32"/>
<path fill="#1E1911" d="M204.8,74.9v44.2c0,2.8,2.2,5,5,5s5-2.2,5-5V79.9"/>
<path fill="#1E1911" d="M217,80.9l0.1,54.9c0,2.8,2.2,5,5,5s5-2.2,5-5V90.5"/>
<path fill="#5E4138" d="M235.1,61.3l21.8-32.9c1.2-1.9,3.6-2.5,5.2-1.3s1.9,3.6,0.7,5.5l-20.9,31.7l-5.9,8.4"/>
<path fill="#1E1911" d="M74,114.6c0,0-0.4-3.1,0.9-3.5c0,0,1.2-0.3,1.2,2.6l2.1-2.7v-6.1c0,0-11.6,10.6-14.2,27.6"/>
<path fill="#5E4138" d="M86.9,58.7L65.1,25.8c-1.2-1.9-3.6-2.4-5.2-1.3c-1.6,1.2-1.9,3.7-0.6,5.6l21,31.6l5.5,8.6L86.9,58.7z"/>
<path fill="#1E1911" d="M227.1,96.2c0,0-0.3-2.6,1.4-2.5c0,0,1.4-0.1,1,4l3.4-2.1l-2.4-6.9l-5-0.5L227.1,96.2z"/>
<path fill="#1E1911" d="M239.5,110.2c0,0-0.3-2.6,1.4-2.5c0,0,1.4-0.1,1,4l3.4-2.1l-2.4-6.9l-5-0.5L239.5,110.2z"/>
<path fill="#1E1911" d="M132,73.3l-5.7-14.5l-19.2,9.3v17.7l3.7-1.4c0,0-0.7-7.1,5.9-9.3c0,0-1.9-0.6,0,0c0,0,6.3-1.1,5.9,7.7
	L132,73.3z"/>
<path fill="#1E1911" d="M211.4,72.2l-5.7-14.5L186.5,67v17.7l6.9-2.7c0,0-3-7.4,2.7-8c0,0,2.5-0.6,5,0.5c0,0,3.5,1.2,3.6,6.1
	L211.4,72.2z"/>
<path fill="#D95027" d="M214.8-32c0,0,28.9,28.6,30.9,90.1c-17-3.2-20.2-8-20.2-8l-16.8-80.2L214.8-32z"/>
<path fill="#D95027" d="M106.2-31.8c0,0-28.8,27.1-30.8,88.5c17-3.2,20.1-6.4,20.1-6.4l16.8-80.2L106.2-31.8z"/>
<path fill="#D95027" d="M167.6-38.6c0-3.7-3.4-6.7-7.6-6.7s-7.6,3-7.6,6.7"/>
<path fill="#F16822" d="M106.2-31.8c16.3-9.3,54.7-7.8,54.7-7.8s38.4-1.5,54.7,7.8c12.5,50.5,10.7,82.2,10.7,82.2l-65.4,0.7
	l-65.4-0.7C95.5,50.4,93.7,18.7,106.2-31.8"/>
<path fill="#CE4627" d="M91.6,35.9C112.9,21.4,160,20.5,160,20.5s47.1,1,68.4,15.4c19.1,24.4,28.1,36.8,28.1,36.8s-0.1,5.8-11.2,4.4
	c-11.1-1.3-53.8-15.4-85.4-15.4S85.6,75.8,74.5,77.1c-11.1,1.4-11.2-4.4-11.2-4.4S72.5,60.3,91.6,35.9"/>
<line fill="none" stroke="#FFFFFF" stroke-width="1.089" stroke-miterlimit="10" x1="96.3" y1="33.8" x2="95.8" y2="34.4"/>
<path fill="none" stroke="#FFFFFF" stroke-width="1.089" stroke-miterlimit="10" stroke-dasharray="1.454,1.454" d="M94.9,35.5
	L65.8,72.7c0,0,0.3,2.3,2.6,3.1c2.3,0.8,10.3-1.1,10.3-1.1s52.6-15,82.2-14.8c29.7,0.3,84.3,16,84.3,16s8.1,0.8,8.4-2.5
	c0.2-2.5-24.4-32.7-29.5-38.9"/>
<path fill="none" stroke="#FFFFFF" stroke-width="1.089" stroke-miterlimit="10" d="M223.6,34c-0.3-0.4-0.5-0.6-0.5-0.6"/>
<circle fill="#FFFFFF" stroke="#383738" stroke-width="2" stroke-miterlimit="10" cx="160.9" cy="-10.5" r="26.7"/>
<path fill="none" stroke="#383738" stroke-width="1.5595" stroke-linecap="round" stroke-miterlimit="10" d="M181.9-9.4
	c0,11.5-9.3,20.8-20.8,20.8s-20.8-9.3-20.8-20.8"/>
<path fill="#444344" d="M142.3-15.5v-1.9c0,0-1.9-2.4-2.1-3.8c-0.3-3.2,2.1-4.8,2.1-4.8v2.1c0,0,1.1-0.8,2.3-1.1
	c1.2-0.4,3.5,0.3,3.5,0.3l-0.5,2.8c0,0-2.4-1.1-3.8,0.7c-0.7,0.8-0.4,2.1,0.3,2.9c0.2,0.2,0.6,0.5,1.7,0.5s2.5-0.3,2.5-0.3l0.1-1.9
	c0,0,0.9-0.1,2.1,0.1c0.9,0.1,1.6,0.7,1.6,0.7l-0.1,1.8l1.1,1c0,0,1,1,1.2,1.9c0.2,0.6,0.4,1.2,0.3,2.1c0,0.5-1,2.7-1,2.7L152-8.2
	l-0.1-2c0,0-1,0.6-2,0.9c-0.9,0.4-1.6,0.4-1.6,0.4v2l-2.8-0.4l0.7-3c0,0,1.9,0.3,2.1,0.3c0-1,0-1.4,0.1-2c0.4-0.1,0.6,0,1.2-0.3
	c1.1-0.5,1.5-1.3,1.6-1.9c0.1-0.6-0.1-1.6-1-2.2c-0.4-0.3-1.8-0.3-1.8-0.3v2c0,0-3.6,0.3-4.2,0.2C143.6-14.7,142.3-15.5,142.3-15.5"
	/>
<g>
	<polygon fill="#444344" points="162,-33.3 160.7,-30.7 158.2,-30.7 158.2,-19.6 161.8,-19.6 163.7,-18.6 162.8,-16.9 155.3,-16.9 
		155.3,-33.3 	"/>
	<path fill="#444344" d="M162.8-30.3l1.4-2.5c0,0,1.7,1,2.6,2.3c1.1,1.5,1.3,2.6,1.4,3.6c0.1,1,0.1,4.6-0.4,5.4
		c-0.6,0.9-1.3,1.7-2.1,2.1c-0.8,0.4-2.5,1.1-2.5,1.1l-2-1.3c0,0,1.2,0,2-0.6c0.9-0.7,1.7-1.9,2-4.4c0.2-1.8-0.4-3.7-1-4.4
		C163.7-29.6,162.8-30.3,162.8-30.3"/>
	<path fill="#444344" d="M162.9-35c0,0,0.6,0,1.3,0.2c0.6,0.2,0.9,0.5,0.9,0.5l-1.4,2.4c0,0-0.3-0.2-1-0.3c-0.5-0.1-1.4,0-1.4,0
		L162.9-35z"/>
	<path fill="#444344" d="M167.8-26.3c0-0.1,1.3-2.2,1.3-2.2s0.2,0.9,0.2,1.9s-0.6,3.1-0.6,3.1s-0.4,0.9-0.5,1.2
		c-0.2,0.6-1.5,2.1-1.5,2.1L167.8-26.3z"/>
</g>
<g>
	<g>
		<path fill="#444344" d="M179.1-20.9l0.6-2.8c0,0-1.9-0.4-3.4-0.1c-1.8,0.4-2.7,1-3.5,1.6c-0.8,0.7-3.2,3.3-3.4,4.3
			c-0.2,1-0.2,2.1,0.1,3c0.3,0.9,1.1,2.5,1.1,2.5l2.3,0.4c0,0-0.9-0.8-1-1.8c-0.2-1.1,0-2.5,1.5-4.6c1.1-1.5,2.8-2.4,3.7-2.5
			C178-21,179.1-20.9,179.1-20.9"/>
	</g>
	<g>
		<path fill="#444344" d="M182.2-24.5c0,0-0.5-0.4-1.1-0.7c-0.6-0.3-1-0.2-1-0.2l-0.6,2.7c0,0,0.4,0.1,1,0.5c0.4,0.3,1,0.9,1,0.9
			L182.2-24.5z"/>
	</g>
	<g>
		<path fill="#444344" d="M172.7-21.4c0-0.1,0.5-2.5,0.5-2.5s-0.8,0.5-1.4,1.3c-0.6,0.8-1.7,2.7-1.7,2.7s-0.3,0.9-0.4,1.2
			c-0.2,0.6-0.3,2.6-0.3,2.6L172.7-21.4z"/>
	</g>
	<g>
		<path fill="#444344" d="M181.9-16.1c-0.1-1.6-0.7-3-1.9-4.1l2-2.2c1.7,1.6,2.7,3.8,2.8,6.1L181.9-16.1z"/>
	</g>
	<g>
		<path fill="#444344" d="M170.7-10.7l2-2.2c1.4,1.3,3.4,1.8,5.3,1.4l0.7,2.9C175.9-7.9,172.9-8.7,170.7-10.7z"/>
	</g>
</g>
</svg>
