<?xml version="1.0" encoding="utf-8"?>
<!-- Generator: Adobe Illustrator 16.2.1, SVG Export Plug-In . SVG Version: 6.00 Build 0)  -->
<!DOCTYPE svg PUBLIC "-//W3C//DTD SVG 1.1//EN" "http://www.w3.org/Graphics/SVG/1.1/DTD/svg11.dtd">
<svg version="1.1" id="Layer_1" xmlns="http://www.w3.org/2000/svg" xmlns:xlink="http://www.w3.org/1999/xlink" x="0px" y="0px"
	 width="160.263px" height="427.944px" viewBox="0 0 160.263 427.944" enable-background="new 0 0 160.263 427.944"
	 xml:space="preserve">
<g>
	<path fill="#73534A" d="M77.234,288.552v74.58c0,39.204,16.5,50.688,37.488,50.688c20.856,0,37.488-10.824,37.488-50.688v-74.58
		H77.234z"/>
	<path fill="#3F93AA" d="M77.234,288.552V33.528C77.234,15.048,93.999,0,114.723,0l0,0c20.724,0,37.488,15.048,37.488,33.528
		v255.024H77.234z"/>
	<g>
		<rect x="76.971" y="339.24" fill="#4F5255" width="76.032" height="76.691"/>
		<path fill="#4F5255" d="M1.071,426.36h147.576v-48.312c0,0-7.788,0-86.196,0C17.571,378.048,1.071,389.004,1.071,426.36z"/>
		<path fill="#E6E6E6" d="M1.071,415.932h36.432v-36.035C16.779,379.764-1.173,388.74,1.071,415.932z"/>
		<path fill="#E6E6E6" d="M0.411,415.932c-0.924,4.753,0,10.296,0,10.296l152.592-0.396v-9.9H0.411z"/>
		<rect x="0.542" y="423.72" fill="#E6E6E6" width="152.46" height="4.225"/>
		
			<line fill="none" stroke="#E24D25" stroke-width="2.0002" stroke-miterlimit="10" x1="0.542" y1="420.288" x2="153.003" y2="420.288"/>
		<path fill="#FFFFFF" d="M65.75,377.256v10.824c0,1.188,1.056,2.244,2.244,2.244s2.244-1.056,2.244-2.244v-10.824
			C68.919,377.256,67.334,377.256,65.75,377.256z"/>
		<path fill="#FFFFFF" d="M59.679,390.324c1.188,0,2.244-1.057,2.244-2.244v-10.824c-1.584,0-3.168,0-4.752,0v10.824
			C57.435,389.268,58.491,390.324,59.679,390.324z"/>
		<path fill="#FFFFFF" d="M43.179,390.324c1.188,0,2.244-1.057,2.244-2.244v-10.692c-1.584,0-3.168,0.133-4.752,0.133v10.428
			C40.803,389.268,41.859,390.324,43.179,390.324z"/>
		<path fill="#FFFFFF" d="M51.495,390.324c1.188,0,2.244-1.057,2.244-2.244v-10.824c-1.584,0-3.168,0-4.752,0v10.692
			C49.119,389.268,50.042,390.324,51.495,390.324z"/>
		<path fill="#FFFFFF" d="M88.455,344.124c0-1.188-0.925-2.244-2.244-2.376l-10.296-0.396c0,1.584,0.132,3.168,0.132,4.752
			l9.899,0.264C87.398,346.5,88.455,345.444,88.455,344.124z"/>
		<path fill="#FFFFFF" d="M88.455,353.1c0-1.188-0.925-2.243-2.244-2.376l-10.296-0.396c0,1.584,0.132,3.168,0.132,4.752
			l9.899,0.264C87.398,355.608,88.455,354.552,88.455,353.1z"/>
		<path fill="#FFFFFF" d="M88.455,361.416c0-1.188-0.925-2.244-2.244-2.376l-10.296-0.396c0,1.585,0.132,3.169,0.132,4.753
			l9.899,0.264C87.398,363.924,88.455,362.868,88.455,361.416z"/>
		<path fill="#FFFFFF" d="M87.663,370.392c0-1.188-0.925-2.243-2.244-2.376l-10.296-0.396c0,1.584,0.132,3.168,0.132,4.752
			l9.899,0.264C86.606,372.768,87.663,371.844,87.663,370.392z"/>
		<path fill="#FFFFFF" d="M85.022,383.856c0.66-1.057,0.396-2.509-0.527-3.168l-8.448-5.94c-0.924,1.32-2.904,1.979-3.696,3.3
			l9.24,6.468C82.778,385.176,84.23,385.044,85.022,383.856z"/>
	</g>
	<rect x="67.467" y="270.6" fill="#6ABACD" width="92.796" height="35.641"/>
</g>
</svg>
