<?xml version="1.0" encoding="utf-8"?>
<!-- Generator: Adobe Illustrator 16.2.1, SVG Export Plug-In . SVG Version: 6.00 Build 0)  -->
<!DOCTYPE svg PUBLIC "-//W3C//DTD SVG 1.1//EN" "http://www.w3.org/Graphics/SVG/1.1/DTD/svg11.dtd">
<svg version="1.1" id="Layer_1" xmlns="http://www.w3.org/2000/svg" xmlns:xlink="http://www.w3.org/1999/xlink" x="0px" y="0px"
	 width="310.596px" height="362.076px" viewBox="0 0 310.596 362.076" enable-background="new 0 0 310.596 362.076"
	 xml:space="preserve">
<g display="none">
	<g display="inline">
		<path fill="#DBDBDA" d="M235.38,218.328c0,22.968,25.344,41.58,56.628,41.58c31.284,0,56.76-18.612,56.76-41.58"/>
		<path fill="#DBDBDA" d="M235.38,218.328l-85.14-0.264c0,0,0.528,326.568,0.528,339.9c0,13.464,9.636,20.592,21.648,20.592
			c12.012,0,251.196,0,265.32,0s22.044-8.976,22.044-22.704c0-13.728-0.528-337.788-0.528-337.788L348.9,218.328"/>
	</g>
	<path display="inline" fill="#73534A" d="M242.244,217.8c0,24.948,28.116,45.144,62.832,45.144
		c34.716,0,62.832-20.196,62.832-45.144"/>
</g>
<g>
	<path fill="#DBDBDA" d="M85.404,0.792c0,23.1,25.476,41.712,56.892,41.712c31.416,0,56.892-18.744,56.892-41.712"/>
	<path fill="#B4BDC5" d="M85.404,0.66L0,0.396c0,0,0.528,327.624,0.528,341.088c0,13.464,9.768,20.592,21.78,20.592
		c12.012,0,251.987,0,266.244,0c14.124,0,22.043-8.977,22.043-22.704c0-13.86-0.527-338.976-0.527-338.976L199.32,0.66"/>
	<rect x="54.516" y="45.408" fill="#B1E0E8" width="201.563" height="164.604"/>
	<g opacity="0.5">
		<polygon fill="#A8AEB2" points="160.248,139.392 0,8.976 0,0.396 8.58,0.528 163.944,135.168 		"/>
	</g>
	<polygon fill="#E2E5E7" points="21.516,0.528 155.76,127.644 282.48,0.528 	"/>
	<path fill="#73534A" d="M92.268,0.132c0,24.948,28.116,62.04,62.964,62.04c34.848,0,63.096-37.092,63.096-62.04"/>
	<g opacity="0.5">
		<polygon fill="#A8AEB2" points="161.436,136.884 309.936,8.976 309.936,0.396 301.356,0.528 155.892,129.492 		"/>
	</g>
	<path fill="none" stroke="#F9F9F9" stroke-width="8.5196" stroke-miterlimit="10" d="M92.268,0c0,24.948,28.116,62.04,62.964,62.04
		c34.848,0,63.096-37.092,63.096-62.04"/>
	<g>
		<polygon fill="#B4BDC5" points="160.512,133.452 5.808,0.924 33.792,0.792 160.248,123.288 267.564,1.584 299.904,0.396 		"/>
	</g>
	<g>
		<polygon fill="#B4BDC5" points="162.624,358.645 158.4,358.645 158.268,127.644 162.492,132.792 		"/>
	</g>
	<polygon fill="#B4BDC5" points="40.788,15.84 59.928,0.528 21.516,0.528 	"/>
	<polygon fill="#F0F1F2" points="59.928,0.528 115.104,79.464 46.068,11.616 	"/>
	<polygon fill="#B4BDC5" points="265.98,15.84 246.84,0.528 285.252,0.528 	"/>
	<polygon fill="#F0F1F2" points="246.84,0.528 191.664,87.648 260.7,11.616 	"/>
	
		<line fill="none" stroke="#B4BDC5" stroke-width="9.5983" stroke-miterlimit="10" x1="160.38" y1="131.736" x2="160.38" y2="361.944"/>
	<polyline fill="#959595" points="158.4,361.944 158.4,138.336 162.36,138.336 162.36,361.944 	"/>
	<g>
		<rect x="158.4" y="138.336" fill="#BDBDBD" width="3.828" height="0.528"/>
	</g>
	<rect x="158.4" y="268.752" fill="#BDBDBD" width="3.828" height="1.056"/>
	<rect x="158.4" y="264" fill="#BDBDBD" width="3.828" height="1.056"/>
	<rect x="158.4" y="259.116" fill="#BDBDBD" width="3.828" height="1.056"/>
	<rect x="158.4" y="254.232" fill="#BDBDBD" width="3.828" height="1.056"/>
	<rect x="158.4" y="249.348" fill="#BDBDBD" width="3.828" height="1.057"/>
	<rect x="158.4" y="244.596" fill="#BDBDBD" width="3.828" height="1.057"/>
	<rect x="158.4" y="239.712" fill="#BDBDBD" width="3.828" height="1.056"/>
	<rect x="158.4" y="234.828" fill="#BDBDBD" width="3.828" height="1.056"/>
	<rect x="158.4" y="229.944" fill="#BDBDBD" width="3.828" height="1.056"/>
	<rect x="158.4" y="225.192" fill="#BDBDBD" width="3.828" height="1.056"/>
	<rect x="158.4" y="220.308" fill="#BDBDBD" width="3.828" height="1.057"/>
	<rect x="158.4" y="215.424" fill="#BDBDBD" width="3.828" height="1.057"/>
	<rect x="158.4" y="210.672" fill="#BDBDBD" width="3.828" height="1.056"/>
	<rect x="158.4" y="205.788" fill="#BDBDBD" width="3.828" height="1.056"/>
	<rect x="158.4" y="200.904" fill="#BDBDBD" width="3.828" height="1.056"/>
	<rect x="158.4" y="196.02" fill="#BDBDBD" width="3.828" height="1.057"/>
	<rect x="158.4" y="191.268" fill="#BDBDBD" width="3.828" height="1.057"/>
	<rect x="158.4" y="186.384" fill="#BDBDBD" width="3.828" height="1.056"/>
	<rect x="158.4" y="181.5" fill="#BDBDBD" width="3.828" height="1.057"/>
	<rect x="158.4" y="176.616" fill="#BDBDBD" width="3.828" height="1.056"/>
	<rect x="158.4" y="171.864" fill="#BDBDBD" width="3.828" height="1.056"/>
	<rect x="158.4" y="166.98" fill="#BDBDBD" width="3.828" height="1.056"/>
	<rect x="158.4" y="162.096" fill="#BDBDBD" width="3.828" height="1.056"/>
	<rect x="158.4" y="157.212" fill="#BDBDBD" width="3.828" height="1.056"/>
	<rect x="158.4" y="152.46" fill="#BDBDBD" width="3.828" height="1.056"/>
	<rect x="158.4" y="147.576" fill="#BDBDBD" width="3.828" height="1.056"/>
	<rect x="158.4" y="142.692" fill="#BDBDBD" width="3.828" height="1.056"/>
	<g>
		<polygon fill="#959595" points="166.32,173.316 154.572,173.316 160.38,153.516 		"/>
	</g>
	<g>
		<polygon fill="#9DA3A7" points="166.32,171.336 154.572,171.336 160.38,151.536 		"/>
	</g>
	<g>
		<path fill="#9DA3A7" d="M162.228,155.1H158.4c-0.924,0-1.584-0.66-1.584-1.584v-3.828c0-0.924,0.66-1.584,1.584-1.584h3.828
			c0.924,0,1.584,0.66,1.584,1.584v3.828C163.944,154.308,163.152,155.1,162.228,155.1z"/>
	</g>
	<g>
		<path fill="#ADB5BA" d="M10.824,359.7l62.7-149.688h-10.56L3.828,347.028l-1.716,3.168c0,0,1.848,5.412,7.392,8.712L10.824,359.7z
			"/>
	</g>
	<g>
		<path fill="#ADB5BA" d="M299.64,359.7l-62.7-149.688h10.56l59.137,137.017l1.715,3.168c0,0-1.848,5.412-7.392,8.712L299.64,359.7z
			"/>
	</g>
</g>
</svg>
