<?xml version="1.0" encoding="utf-8"?>
<!-- Generator: Adobe Illustrator 19.1.0, SVG Export Plug-In . SVG Version: 6.00 Build 0)  -->
<svg version="1.1" id="Layer_1" xmlns="http://www.w3.org/2000/svg" xmlns:xlink="http://www.w3.org/1999/xlink" x="0px" y="0px"
	 viewBox="57 -74.8 234.8 269.8" enable-background="new 57 -74.8 234.8 269.8" xml:space="preserve">
<path fill="#79C158" d="M91.4,184.9l-14.6-1.2c-11.8-1-20.6-11.3-19.7-23.2L67.8,30.2L247.3,45l-10.8,130.3
	c-1,11.8-11.3,20.6-23.2,19.7l-14.6-1.2L91.4,184.9z"/>
<path fill="#79C158" d="M70.3,23.4l179,13.9c2.4-30.7-13.9-59-40.1-75.1L225-61.2c0.8-1.3,0.5-3-0.8-3.8c-1.3-0.8-3-0.5-3.8,0.8
	l-15.9,23.6c-11.4-6.2-24.4-10.1-38.3-11.2c-14-1.1-27.4,0.8-39.6,5.1l-13.3-26.5c-0.6-1.4-2.2-2-3.7-1.4c-1.4,0.6-2,2.3-1.4,3.7
	l13.2,26.2C93.1-32.7,72.7-7.4,70.3,23.4z M196.1-7c0.3-4.1,3.9-7.2,8.1-6.9c4.1,0.3,7.2,4,6.9,8.1s-3.9,7.2-8.1,6.9
	C198.9,0.7,195.8-2.9,196.1-7z M114.6-13.4c0.3-4.1,4-7.3,8.1-6.9c4.1,0.3,7.2,4,6.9,8.1c-0.3,4.2-4,7.2-8.1,6.9
	C117.4-5.6,114.3-9.2,114.6-13.4z"/>
</svg>
